<?xml version="1.0" encoding="UTF-8" standalone="no"?>
<!-- Created with Inkscape (http://www.inkscape.org/) -->

<svg
   width="32"
   height="32"
   viewBox="0 0 8.4666665 8.4666666"
   version="1.1"
   id="svg1"
   inkscape:version="1.4 (e7c3feb1, 2024-10-09)"
   sodipodi:docname="icon.svg"
   xmlns:inkscape="http://www.inkscape.org/namespaces/inkscape"
   xmlns:sodipodi="http://sodipodi.sourceforge.net/DTD/sodipodi-0.dtd"
   xmlns="http://www.w3.org/2000/svg"
   xmlns:svg="http://www.w3.org/2000/svg">
  <sodipodi:namedview
     id="namedview1"
     pagecolor="#505050"
     bordercolor="#ffffff"
     borderopacity="1"
     inkscape:showpageshadow="0"
     inkscape:pageopacity="0"
     inkscape:pagecheckerboard="1"
     inkscape:deskcolor="#505050"
     inkscape:document-units="mm"
     inkscape:zoom="8.1655208"
     inkscape:cx="0.9797293"
     inkscape:cy="19.900751"
     inkscape:window-width="1728"
     inkscape:window-height="1056"
     inkscape:window-x="0"
     inkscape:window-y="33"
     inkscape:window-maximized="0"
     inkscape:current-layer="svg1" />
  <defs
     id="defs1" />
  <path
     id="path1"
     style="fill:#020202;stroke-width:0;stroke-linecap:round;paint-order:markers stroke fill"
     inkscape:label="circle"
     d="M 4.2333333 0 A 4.2333331 4.2333331 0 0 0 0 4.2333333 A 4.2333331 4.2333331 0 0 0 4.2333333 8.4666667 A 4.2333331 4.2333331 0 0 0 8.4666667 4.2333333 A 4.2333331 4.2333331 0 0 0 4.2333333 0 z M 3.3155599 1.5709635 A 0.17458731 0.17458731 0 0 1 3.4835083 1.6164388 L 3.7641113 1.8965251 A 1.1592596 1.1592596 0 0 1 4.2333333 1.7978231 C 4.4002389 1.7978231 4.559161 1.8332051 4.7025553 1.8965251 L 4.9831584 1.6164388 A 0.17482009 0.17482009 0 0 1 5.2255208 1.6205729 A 0.17482009 0.17482009 0 0 1 5.2296549 1.8629354 L 5.0033122 2.0892782 A 1.1618202 1.1618202 0 0 1 5.3970866 2.9615763 L 5.3970866 3.2184082 A 0.64131735 0.64131735 0 0 1 5.843571 3.6783285 L 6.3081421 3.4452677 A 0.1750613 0.1750613 0 0 1 6.4647217 3.7584269 L 5.8626912 4.0591838 L 5.8626912 4.707723 L 6.6192342 4.7082397 A 0.17466634 0.17466634 0 0 1 6.6192342 5.0575724 L 5.8626912 5.0570557 L 5.8626912 5.2895996 C 5.8626912 5.4218209 5.847319 5.5533308 5.8156657 5.6818237 L 5.8244507 5.6859578 L 6.4647217 6.005835 A 0.1750613 0.1750613 0 1 1 6.3081421 6.3189941 L 5.6947428 6.0115194 A 1.6290159 1.6290159 0 0 1 4.4674276 6.8972534 L 4.4674276 4.6777507 L 4.0385132 4.6777507 L 4.0385132 6.9019043 A 1.6290159 1.6290159 0 0 1 2.7905273 6.0476929 L 2.1487061 6.3231283 A 0.17505287 0.17505287 0 0 1 1.9011759 6.141744 A 0.17505287 0.17505287 0 0 1 2.0112467 6.0017008 L 2.661853 5.7226481 A 1.6238947 1.6238947 0 0 1 2.6039754 5.2895996 L 2.6039754 5.0575724 L 1.8474325 5.0575724 A 0.17466634 0.17466634 0 0 1 1.8474325 4.7082397 L 2.6039754 4.7082397 L 2.6039754 4.0591838 L 2.001945 3.7579102 A 0.17483024 0.17483024 0 0 1 2.1585246 3.4452677 L 2.6230957 3.6778117 A 0.64155015 0.64155015 0 0 1 3.0695801 3.2184082 L 3.0695801 2.9615763 A 1.1615875 1.1615875 0 0 1 3.4628377 2.0892782 L 3.2370117 1.8629354 A 0.17458731 0.17458731 0 0 1 3.2370117 1.6164388 A 0.17458731 0.17458731 0 0 1 3.3155599 1.5709635 z " />
</svg>
